<svg preserveAspectRatio="none" overflow="visible" style="display: block;" width="15.864" height="15.864" viewBox="0 0 15.864 15.864" fill="none" xmlns="http://www.w3.org/2000/svg">
<g id="image">
<path id="Vector" d="M14.8188 6.02944C14.6964 5.65097 14.3598 5.38241 13.9632 5.34729L10.2828 5.03001L8.84031 1.59885C8.68734 1.23058 8.327 0.990356 7.92814 0.990356C7.52927 0.990356 7.16893 1.23058 7.01596 1.59885L5.578 5.03001L1.89302 5.34955C1.49529 5.38241 1.15648 5.65097 1.03297 6.03057C0.909458 6.41017 1.02617 6.82717 1.32872 7.08779L4.12418 9.53085L3.28679 13.1592C3.19614 13.5467 3.34684 13.9512 3.66866 14.1858C3.9916 14.4204 4.4222 14.4385 4.76327 14.2334L7.9236 12.3116L11.0907 14.2334C11.4318 14.4385 11.8635 14.4204 12.1853 14.1858C12.5083 13.9512 12.659 13.5467 12.5684 13.1592L11.731 9.52745L14.5264 7.08779C14.8278 6.82604 14.9434 6.40904 14.8188 6.02944ZM13.876 6.33878L11.0817 8.77731C10.804 9.01866 10.6828 9.39373 10.7667 9.75181L11.6063 13.3847L8.44145 11.464C8.12757 11.2725 7.7321 11.2725 7.41709 11.464L4.25562 13.3847L5.08962 9.75407C5.17347 9.396 5.05222 9.02206 4.77574 8.7807L1.97914 6.34218V6.33765L5.66299 6.01811C6.02899 5.98638 6.34854 5.75408 6.49018 5.41414L7.92814 1.98865L9.36609 5.41414C9.50774 5.75408 9.82728 5.98638 10.1933 6.01924L13.8771 6.33765V6.34105L13.876 6.33878Z" fill="white" fill-opacity="0.2"/>
</g>
</svg>
